<svg xmlns="http://www.w3.org/2000/svg" viewBox="0 0 383.8 90.12"><defs><style>.cls-1{fill:#231f20;}.cls-2,.cls-4{fill:none;stroke:#231f20;stroke-miterlimit:10;}.cls-2{stroke-width:7.5px;}.cls-3{fill:#ed1c24;}.cls-4{stroke-linecap:round;stroke-width:3px;}</style></defs><g id="Layer_2" data-name="Layer 2"><g id="Layer_1-2" data-name="Layer 1"><path class="cls-1" d="M107.33,39.36h8.5v34.2h-6.41l-1-4h-.29a17.55,17.55,0,0,1-4.39,3.2,14.19,14.19,0,0,1-6.84,1.48,12.14,12.14,0,0,1-8.64-3Q85,68.23,85,62.18V39.36h8.5v22q0,3.52,1.62,5a5.89,5.89,0,0,0,4.14,1.48,9.24,9.24,0,0,0,4.64-1.12,12.65,12.65,0,0,0,3.42-2.77Z"/><path class="cls-1" d="M129.94,31.51a4.62,4.62,0,0,1-3.49-1.3,4.7,4.7,0,0,1,0-6.44,5.12,5.12,0,0,1,6.84,0,4.69,4.69,0,0,1,0,6.48A4.54,4.54,0,0,1,129.94,31.51Zm-4.25,42.05V39.36h8.5v34.2Z"/><path class="cls-1" d="M161.4,67.94a13.93,13.93,0,0,0,4.07-.54,16.6,16.6,0,0,0,3-1.19l1.65,6a20.34,20.34,0,0,1-4.17,1.44,23.58,23.58,0,0,1-5.69.65,22.06,22.06,0,0,1-7.13-1.12,15.92,15.92,0,0,1-5.76-3.35,15.61,15.61,0,0,1-3.85-5.54,19.52,19.52,0,0,1-1.4-7.7,19.51,19.51,0,0,1,1.33-7.35,16.22,16.22,0,0,1,3.74-5.65,16.55,16.55,0,0,1,5.76-3.6,20.79,20.79,0,0,1,7.38-1.26,25.53,25.53,0,0,1,4.61.43A21,21,0,0,1,170,40.87l-1.8,6.05a16.28,16.28,0,0,0-3.38-1.44,12.63,12.63,0,0,0-3.6-.51,10.26,10.26,0,0,0-7.63,2.92q-2.88,2.91-2.88,8.46a14.2,14.2,0,0,0,.93,5.47,9.85,9.85,0,0,0,2.45,3.6,8.88,8.88,0,0,0,3.42,2A13.4,13.4,0,0,0,161.4,67.94Z"/><path class="cls-1" d="M185.3,61.75V73.56h-8.42V22.29h8.42V53.18l12.24-13.82h10.37l-13.46,14.4,14,19.8h-10L188.33,58.73Z"/><path class="cls-1" d="M233.47,47a19.29,19.29,0,0,0-8.28-2,7.38,7.38,0,0,0-4.07.94,3,3,0,0,0-1.4,2.59,2.93,2.93,0,0,0,1.15,2.34,13.81,13.81,0,0,0,4.61,2l2.16.65a16,16,0,0,1,7,3.74,8.57,8.57,0,0,1,2.34,6.27,9.45,9.45,0,0,1-3.75,7.88q-3.74,2.92-10.22,2.92A25.75,25.75,0,0,1,211.37,72l1.87-6.33a26.26,26.26,0,0,0,4.43,1.65,17.81,17.81,0,0,0,4.86.65q6,0,6-3.81a2.86,2.86,0,0,0-1.4-2.6,22.62,22.62,0,0,0-4.79-1.87l-2.23-.72a14.92,14.92,0,0,1-6.59-3.78A8.78,8.78,0,0,1,211.37,49a9.31,9.31,0,0,1,.93-4.14,9.69,9.69,0,0,1,2.63-3.28,12.33,12.33,0,0,1,4.1-2.12,17.73,17.73,0,0,1,5.37-.76,29.75,29.75,0,0,1,5.72.54,23,23,0,0,1,5.15,1.62Z"/><path class="cls-1" d="M261.26,67.94a13.93,13.93,0,0,0,4.07-.54,16.6,16.6,0,0,0,3-1.19l1.65,6a20.34,20.34,0,0,1-4.17,1.44,23.58,23.58,0,0,1-5.69.65A22.06,22.06,0,0,1,253,73.16a15.92,15.92,0,0,1-5.76-3.35,15.61,15.61,0,0,1-3.85-5.54,19.52,19.52,0,0,1-1.4-7.7,19.51,19.51,0,0,1,1.33-7.35A16.22,16.22,0,0,1,247,43.57,16.55,16.55,0,0,1,252.8,40a20.79,20.79,0,0,1,7.38-1.26,25.53,25.53,0,0,1,4.61.43,21,21,0,0,1,5.11,1.73l-1.8,6.05a16.28,16.28,0,0,0-3.38-1.44,12.63,12.63,0,0,0-3.6-.51,10.26,10.26,0,0,0-7.63,2.92q-2.88,2.91-2.88,8.46a14.2,14.2,0,0,0,.93,5.47,10,10,0,0,0,2.45,3.6,8.88,8.88,0,0,0,3.42,2A13.4,13.4,0,0,0,261.26,67.94Z"/><path class="cls-1" d="M307.13,56.21a20.66,20.66,0,0,1-1.34,7.63,16,16,0,0,1-3.7,5.69,16.41,16.41,0,0,1-5.55,3.52,18.72,18.72,0,0,1-6.84,1.23,19.69,19.69,0,0,1-6.8-1.15,15.69,15.69,0,0,1-5.44-3.35,15.18,15.18,0,0,1-3.6-5.44,19.91,19.91,0,0,1-1.29-7.41,21.15,21.15,0,0,1,1.33-7.74,15.74,15.74,0,0,1,3.71-5.73,16.44,16.44,0,0,1,5.54-3.53A18.93,18.93,0,0,1,290,38.71a19.92,19.92,0,0,1,6.8,1.12,15,15,0,0,1,5.44,3.34,15.48,15.48,0,0,1,3.6,5.48A20.35,20.35,0,0,1,307.13,56.21Zm-8.79.36a17.15,17.15,0,0,0-.72-5.3,10.1,10.1,0,0,0-1.91-3.56,7.34,7.34,0,0,0-2.73-2,8.12,8.12,0,0,0-3.21-.65,9.29,9.29,0,0,0-3.16.54,6.3,6.3,0,0,0-2.67,1.87A10.2,10.2,0,0,0,282.07,51a18.33,18.33,0,0,0-.72,5.55,16.09,16.09,0,0,0,.72,5.14A10.68,10.68,0,0,0,284,65.24a7.14,7.14,0,0,0,2.73,2.05,8.08,8.08,0,0,0,3.21.65,9,9,0,0,0,3.13-.57,6.75,6.75,0,0,0,2.7-1.88A9.66,9.66,0,0,0,297.62,62,17.59,17.59,0,0,0,298.34,56.57Z"/><path class="cls-1" d="M329.73,74.28a15.36,15.36,0,0,1-4-.51,10.67,10.67,0,0,1-3.21-1.36V90.12h-8.42v-51h6.55l1,4a17.84,17.84,0,0,1,4.61-3.2,13.29,13.29,0,0,1,5.9-1.26q6.76,0,10.69,4.5t3.93,12.56a21.27,21.27,0,0,1-1.41,8.07,17.08,17.08,0,0,1-3.74,5.79,14.88,14.88,0,0,1-5.44,3.5A18.58,18.58,0,0,1,329.73,74.28Zm.29-29a8.17,8.17,0,0,0-4.54,1.26,12.87,12.87,0,0,0-3,2.49V66a7.87,7.87,0,0,0,2.81,1.47,11.37,11.37,0,0,0,3.31.47,9.11,9.11,0,0,0,3.39-.65,8.1,8.1,0,0,0,3-2.05,10.37,10.37,0,0,0,2.16-3.67A16.17,16.17,0,0,0,338,56a13.76,13.76,0,0,0-2-7.74A6.72,6.72,0,0,0,330,45.26Z"/><path class="cls-1" d="M383.8,58.37H360.55v.28c0,3.13,1,5.45,2.91,7a12,12,0,0,0,7.67,2.3,22.36,22.36,0,0,0,5-.5,25,25,0,0,0,4.21-1.37l1.65,6a26.37,26.37,0,0,1-5,1.58,30.93,30.93,0,0,1-6.7.65,24.78,24.78,0,0,1-7.16-1,15.9,15.9,0,0,1-5.87-3.17,15.31,15.31,0,0,1-4-5.47,19.44,19.44,0,0,1-1.47-7.92,20.93,20.93,0,0,1,1.22-7.34,16.59,16.59,0,0,1,3.46-5.69,14.93,14.93,0,0,1,5.4-3.67,18.15,18.15,0,0,1,7-1.3q6.84,0,10.87,4.18t4,11.59Zm-8.71-5.91a11.6,11.6,0,0,0-.36-2.91,7.12,7.12,0,0,0-1.15-2.49,5.47,5.47,0,0,0-2.05-1.69,6.76,6.76,0,0,0-3-.61,7.09,7.09,0,0,0-5.33,2.16,9.63,9.63,0,0,0-2.52,5.69Z"/><circle class="cls-2" cx="39.46" cy="39.46" r="35.71"/><circle class="cls-3" cx="39.72" cy="39.36" r="6.5"/><line class="cls-4" x1="51.79" y1="51.89" x2="76.16" y2="76.26"/><line class="cls-4" x1="27.14" y1="51.89" x2="2.77" y2="76.26"/><line class="cls-4" x1="51.79" y1="27.04" x2="76.16" y2="2.67"/><line class="cls-4" x1="27.14" y1="27.04" x2="2.77" y2="2.67"/></g></g></svg>