<svg xmlns="http://www.w3.org/2000/svg" viewBox="0 0 80.93 80.93"><defs><style>.cls-1{fill:#fff;}.cls-2{fill:#231f20;}.cls-3{fill:#ed1c24;}</style></defs><g id="Layer_2" data-name="Layer 2"><g id="Layer_1-2" data-name="Layer 1"><path class="cls-1" d="M77.16,79.76A2.51,2.51,0,0,1,75.39,79L51,54.66a2.5,2.5,0,0,1,3.54-3.54L78.93,75.49a2.5,2.5,0,0,1-1.77,4.27Z"/><path class="cls-1" d="M3.77,79.76A2.5,2.5,0,0,1,2,75.49L26.37,51.12a2.51,2.51,0,0,1,4.27,1.77,2.46,2.46,0,0,1-.74,1.77L5.53,79A2.48,2.48,0,0,1,3.77,79.76Z"/><path class="cls-1" d="M52.79,30.54A2.5,2.5,0,0,1,51,26.27L75.39,1.9a2.5,2.5,0,0,1,3.54,3.54L54.56,29.8A2.46,2.46,0,0,1,52.79,30.54Z"/><path class="cls-1" d="M28.14,30.54a2.46,2.46,0,0,1-1.77-.74L2,5.44A2.5,2.5,0,1,1,5.53,1.9L29.9,26.27a2.49,2.49,0,0,1,0,3.54A2.48,2.48,0,0,1,28.14,30.54Z"/><path class="cls-2" d="M77.16,78.76a1.51,1.51,0,0,1-1.06-.44L51.73,54a1.51,1.51,0,0,1,0-2.12,1.49,1.49,0,0,1,2.12,0L78.22,76.2a1.5,1.5,0,0,1-1.06,2.56Z"/><path class="cls-2" d="M3.77,78.76A1.5,1.5,0,0,1,2.71,76.2L27.08,51.83a1.49,1.49,0,0,1,2.12,0,1.51,1.51,0,0,1,0,2.12L4.83,78.32A1.53,1.53,0,0,1,3.77,78.76Z"/><path class="cls-2" d="M52.79,29.54A1.5,1.5,0,0,1,51.73,27L76.1,2.61a1.5,1.5,0,0,1,2.12,2.12L53.85,29.1A1.49,1.49,0,0,1,52.79,29.54Z"/><path class="cls-2" d="M28.14,29.54a1.49,1.49,0,0,1-1.06-.44L2.71,4.73A1.5,1.5,0,0,1,4.83,2.61L29.2,27a1.51,1.51,0,0,1,0,2.12A1.53,1.53,0,0,1,28.14,29.54Z"/><path class="cls-1" d="M70.32,13.18a1.81,1.81,0,0,1-1.6.84c-2.08,0-2.48-2.61-1.2-3.61a40.37,40.37,0,0,0-54.24.11c1.72.75,1.44,3.84-.82,3.84a1.83,1.83,0,0,1-1.8-1.23A40.37,40.37,0,0,0,10.82,68a1.84,1.84,0,0,1,1.86-1.45c2.35,0,2.55,3.32.62,3.9a40.36,40.36,0,0,0,54.25.07c-1.36-1-1-3.66,1.13-3.66a1.82,1.82,0,0,1,1.65.91,40.39,40.39,0,0,0,0-54.56ZM63.64,61c1.37,1,1,3.66-1.12,3.66a1.8,1.8,0,0,1-1.65-.91A30.87,30.87,0,0,1,20,63.65a1.8,1.8,0,0,1-1.64.91c-2.13,0-2.49-2.72-1.11-3.67a30.88,30.88,0,0,1,.22-41.1c-1.84-.67-1.6-3.88.71-3.88A1.83,1.83,0,0,1,20,17.27a30.89,30.89,0,0,1,41.26.26,1.85,1.85,0,0,1,1.91-1.78c2.48,0,2.57,3.69.28,4A30.89,30.89,0,0,1,63.64,61Z"/><path class="cls-2" d="M40.46,79.93A39.47,39.47,0,1,1,79.93,40.46,39.51,39.51,0,0,1,40.46,79.93Zm0-71.43a32,32,0,1,0,32,32A32,32,0,0,0,40.46,8.5Z"/><circle class="cls-3" cx="40.72" cy="40.36" r="6.5"/></g></g></svg>