<?xml version="1.0" standalone="no"?>
<!DOCTYPE svg PUBLIC "-//W3C//DTD SVG 20010904//EN"
 "http://www.w3.org/TR/2001/REC-SVG-20010904/DTD/svg10.dtd">
<svg version="1.0" xmlns="http://www.w3.org/2000/svg"
 width="317.000000pt" height="317.000000pt" viewBox="0 0 317.000000 317.000000"
 preserveAspectRatio="xMidYMid meet">
<metadata>
Created by potrace 1.11, written by Peter Selinger 2001-2013
</metadata>
<g transform="translate(0.000000,317.000000) scale(0.100000,-0.100000)"
fill="#000000" stroke="none">
<path d="M1527 3164 c-1 -1 -39 -4 -83 -8 -319 -24 -605 -145 -898 -380 l-36
-28 -180 180 c-100 100 -190 184 -200 187 -46 15 -88 -40 -64 -85 7 -14 89
-101 183 -195 94 -93 171 -174 171 -179 0 -5 -8 -16 -18 -25 -28 -24 -138
-175 -183 -252 -73 -123 -164 -360 -184 -479 -30 -184 -38 -359 -21 -481 3
-24 9 -64 12 -89 17 -125 86 -339 151 -463 43 -84 141 -233 187 -286 67 -77
80 -51 -127 -259 -168 -170 -185 -190 -180 -215 7 -34 44 -61 72 -52 11 3 101
87 201 186 161 162 182 180 198 168 9 -8 40 -32 67 -55 166 -138 430 -265 637
-308 158 -33 205 -37 352 -38 370 0 732 129 1004 360 l64 54 25 -24 c14 -12
94 -91 177 -174 183 -183 197 -193 236 -154 43 43 32 60 -166 257 -102 103
-181 189 -177 192 22 16 106 125 156 201 118 183 205 399 233 575 3 22 7 42 9
45 5 8 18 189 18 250 0 98 -13 212 -38 339 -44 226 -185 505 -351 693 l-33 37
185 184 c159 159 184 189 184 215 0 38 -32 64 -69 55 -15 -3 -92 -72 -182
-162 -86 -86 -168 -167 -182 -180 l-26 -23 -58 49 c-227 195 -559 334 -853
358 -73 6 -209 12 -213 9z m148 -308 c114 -6 126 -8 255 -42 154 -41 353 -146
478 -252 l33 -28 -210 -211 c-183 -183 -211 -215 -211 -242 0 -38 37 -66 72
-55 13 4 115 98 227 210 112 112 207 204 211 204 12 0 114 -137 158 -213 62
-105 129 -277 146 -373 3 -16 8 -38 10 -49 46 -234 6 -527 -103 -761 -54 -115
-189 -314 -213 -314 -3 0 -97 92 -210 204 -113 112 -215 207 -227 211 -34 10
-71 -19 -71 -56 0 -27 28 -59 211 -242 l210 -211 -33 -28 c-162 -138 -414
-255 -608 -283 -25 -4 -56 -9 -70 -11 -46 -7 -224 -6 -295 1 -151 15 -367 88
-497 167 -60 36 -195 135 -204 149 -3 5 90 104 205 220 223 223 233 237 191
279 -40 40 -54 30 -278 -192 l-213 -213 -30 35 c-225 263 -335 627 -295 975
27 234 144 504 291 672 l33 38 215 -213 c189 -188 217 -213 242 -209 31 4 55
31 55 62 0 15 -67 89 -212 235 l-212 213 39 33 c187 159 442 266 695 290 36 4
66 8 68 9 1 1 12 1 25 -1 12 -2 67 -5 122 -8z"/>
<path d="M1507 1836 c-128 -46 -201 -187 -164 -317 19 -65 73 -131 131 -161
60 -31 160 -36 217 -11 102 45 162 136 162 244 0 71 -38 156 -91 199 -68 56
-173 75 -255 46z"/>
</g>
</svg>
